<svg width="840" height="857" viewBox="0 0 840 857" fill="none" xmlns="http://www.w3.org/2000/svg">
<g id="ZigZag One" clip-path="url(#clip0_3848_14585)">
<g id="Group 30">
<g id="Group 3">
<mask id="mask0_3848_14585" style="mask-type:luminance" maskUnits="userSpaceOnUse" x="-9" y="-2" width="249" height="82">
<path id="Clip 2" fill-rule="evenodd" clip-rule="evenodd" d="M-8.01782 -1.7832H239.798V79.1627H-8.01782V-1.7832Z" fill="white"/>
</mask>
<g mask="url(#mask0_3848_14585)">
<path id="Fill 1" fill-rule="evenodd" clip-rule="evenodd" d="M-8.01782 37.1662C79.5098 51.1637 162.888 65.1617 239.798 79.1628C214.748 52.1815 184.818 25.1989 151.993 -1.7832H75.6853C76.2256 -1.40771 76.7726 -1.03266 77.3111 -0.658502C73.1789 -1.03266 68.9367 -1.40771 64.7853 -1.7832H-8.01782V37.1662Z" fill="#1A1A1A"/>
</g>
</g>
<path id="Fill 4" fill-rule="evenodd" clip-rule="evenodd" d="M-8.0177 63.5977V174.248C33.5223 181.298 73.2383 188.347 110.877 195.397C81.0283 151.465 39.1854 107.529 -8.0177 63.5977" fill="#1A1A1A"/>
<g id="Group 8">
<mask id="mask1_3848_14585" style="mask-type:luminance" maskUnits="userSpaceOnUse" x="-9" y="-2" width="582" height="434">
<path id="Clip 7" fill-rule="evenodd" clip-rule="evenodd" d="M-8.01746 -1.7832H572.408V431.849H-8.01746V-1.7832Z" fill="white"/>
</mask>
<g mask="url(#mask1_3848_14585)">
<path id="Fill 6" fill-rule="evenodd" clip-rule="evenodd" d="M91.4088 268.048C168.206 283.914 235.363 299.777 295.79 315.642C291.631 261.03 273.239 206.424 235.437 151.815C317.618 167.68 390.439 183.543 455.02 199.407C438.667 144.821 402.907 90.2356 344.535 35.6491C428.51 51.512 504.907 67.3759 572.408 83.2402C552.248 54.9 525.105 26.5579 490.833 -1.7832H202.968C262.067 38.6731 312.86 79.1298 350.293 119.588C269.198 110.919 180.262 102.247 83.7403 93.5754C146.171 143.749 194.483 193.92 224.846 244.087C153.642 236.127 76.2665 228.168 -8.01746 220.209V240.191C33.9078 283 63.7269 325.806 82.1929 368.614C53.1048 364.91 23.0443 361.204 -8.01746 357.501V393.825C42.2743 406.5 87.7621 419.175 130.368 431.849C129.631 377.25 119.272 322.649 91.4088 268.048" fill="#1A1A1A"/>
</g>
</g>
<g id="Group 11">
<mask id="mask2_3848_14585" style="mask-type:luminance" maskUnits="userSpaceOnUse" x="-9" y="-2" width="831" height="671">
<path id="Clip 10" fill-rule="evenodd" clip-rule="evenodd" d="M-8.01782 -1.7832H821.176V668.294H-8.01782V-1.7832Z" fill="white"/>
</mask>
<g mask="url(#mask2_3848_14585)">
<path id="Fill 9" fill-rule="evenodd" clip-rule="evenodd" d="M85.5143 668.294C78.5327 613.698 84.117 559.097 85.476 504.496C132.783 520.361 178.407 536.226 226.739 552.092C232.647 497.493 244.232 442.892 246.486 388.291C301.215 404.156 351.389 420.021 401.335 435.885C411.928 381.275 421.829 326.668 417.044 272.059C476.462 287.924 529.095 303.786 578.628 319.652C585.025 265.067 584.364 210.478 562.955 155.892C625.04 171.758 678.839 187.623 726.746 203.486C720.379 148.892 700.088 94.2997 651.711 39.7069C717.097 55.5734 773.41 71.4395 821.175 87.3069C806.616 57.6108 785.545 27.9151 755.634 -1.7832H524.154C578.204 37.2606 617.477 76.3089 643.893 115.349C581.501 106.673 511.559 97.9994 433.936 89.3234C483.785 139.493 512.417 189.662 526.496 239.831C463.997 231.16 395.615 222.492 319.923 213.822C350.034 263.991 362.37 314.163 366.116 364.33C305.579 355.659 241.963 346.991 173.08 338.321C192.071 388.501 196.583 438.678 198.536 488.857C143.308 480.189 88.4149 471.515 31.4316 462.848C45.7262 513.001 49.3519 563.156 57.1839 613.313C34.6631 609.213 13.0386 605.115 -8.01807 601.017V633.187C21.1141 644.891 51.7733 656.593 85.5143 668.294" fill="#1A1A1A"/>
</g>
</g>
<path id="Fill 14" fill-rule="evenodd" clip-rule="evenodd" d="M860.434 107.095V-1.7832H775.001C815.771 34.5092 842.327 70.8012 860.434 107.095" fill="#1A1A1A"/>
<g id="Group 18">
<mask id="mask3_3848_14585" style="mask-type:luminance" maskUnits="userSpaceOnUse" x="-9" y="85" width="870" height="782">
<path id="Clip 17" fill-rule="evenodd" clip-rule="evenodd" d="M-8.01782 85.0957H860.434V866.668H-8.01782V85.0957Z" fill="white"/>
</mask>
<g mask="url(#mask3_3848_14585)">
<path id="Fill 16" fill-rule="evenodd" clip-rule="evenodd" d="M708.297 85.0957C746.613 135.263 763.049 185.426 771.988 235.594C723.063 226.919 669.638 218.245 610.044 209.569C626.287 259.74 628.017 309.904 629.236 360.075C574.176 351.405 517.934 342.735 458.228 334.064C462.053 384.235 457.813 434.404 459.385 484.573C400.294 475.906 343.489 467.232 286.568 458.564C286.895 508.743 285.39 558.92 295.989 609.1C236.018 600.431 181.328 591.759 129.965 583.091C135.132 633.247 145.144 683.401 174.179 733.557C115.074 724.886 63.2647 716.216 17.743 707.545C35.4514 757.707 65.7533 807.872 123.335 858.034C74.3024 850.974 30.5023 843.913 -8.01819 836.854V862.474C-6.7073 863.871 -5.363 865.27 -4.01292 866.668H21.6187C18.7858 863.485 16.0295 860.3 13.3921 857.118C23.7959 860.3 34.7236 863.485 45.9425 866.668H152.58C107.646 824.757 80.6804 782.844 65.3168 740.933C113.652 756.803 169.783 772.671 234.807 788.54C195.496 733.942 181.825 679.337 180.232 624.74C229.318 640.603 283.562 656.468 345.813 672.336C330.087 617.736 333.233 563.136 341.846 508.534C392.011 524.399 444.567 540.263 503.448 556.128C501.048 501.519 511.87 446.91 521.829 392.303C571.356 408.165 620.393 424.031 673.352 439.895C675.148 385.31 685.083 330.72 687.714 276.134C734.733 291.999 778.282 307.865 822.673 323.73C821.631 269.136 823.768 214.545 811.452 159.949C828.694 166.12 844.937 172.29 860.434 178.462V110.726C816.808 102.182 766.299 93.6394 708.297 85.0957" fill="#1A1A1A"/>
</g>
</g>
<g id="Group 21">
<mask id="mask4_3848_14585" style="mask-type:luminance" maskUnits="userSpaceOnUse" x="172" y="329" width="689" height="538">
<path id="Clip 20" fill-rule="evenodd" clip-rule="evenodd" d="M172.86 329.814H860.434V866.67H172.86V329.814Z" fill="white"/>
</mask>
<g mask="url(#mask4_3848_14585)">
<path id="Fill 19" fill-rule="evenodd" clip-rule="evenodd" d="M712.591 329.814C715.939 379.985 719.506 430.149 736.287 480.32C671.242 471.647 610.408 462.98 551.433 454.311C553.639 504.479 562.289 554.648 587.54 604.818C513.634 596.151 446.469 587.477 384.256 578.809C393.499 628.988 415.096 679.166 456.57 729.346C379.064 720.676 309.351 712.009 246.736 703.336C272.211 753.491 316.282 803.648 384.047 853.803C306.542 845.136 235.844 836.461 172.86 827.794C186.258 840.752 201.418 853.71 218.316 866.67H260.551C258.433 864.84 256.258 863.008 254.208 861.178C262.451 863.008 270.841 864.84 279.311 866.67H434.797C385.039 826.109 348.87 785.548 325.715 744.986C393.238 760.851 469.572 776.716 554.159 792.581C503.092 737.983 472.977 683.38 460.702 628.781C525.086 644.644 597.458 660.51 679.503 676.373C644.671 621.765 628.346 567.154 625.069 512.549C684.191 528.41 749.567 544.278 824.528 560.141C796.422 505.554 785.52 450.966 783.312 396.38C807.975 404.104 833.53 411.829 860.434 419.553V354.635C811.263 346.362 762.657 338.089 712.591 329.814" fill="#1A1A1A"/>
</g>
</g>
<path id="Fill 22" fill-rule="evenodd" clip-rule="evenodd" d="M860.434 326.378V209.972C852.769 208.428 845.139 206.885 837.168 205.34C846.633 245.686 851.65 286.031 860.434 326.378" fill="#1A1A1A"/>
<path id="Fill 24" fill-rule="evenodd" clip-rule="evenodd" d="M860.434 521.278V455.277C847.443 453.537 834.577 451.797 821.914 450.059C831.361 473.799 844.159 497.54 860.434 521.278" fill="#1A1A1A"/>
<path id="Fill 26" fill-rule="evenodd" clip-rule="evenodd" d="M682.843 574.553C709.42 624.718 753.097 674.889 811.942 725.06C715.369 716.391 626.98 707.721 546.424 699.054C585.973 749.232 644.924 799.411 716.05 849.588C622.173 840.921 534.019 832.251 452.989 823.582C470.6 837.944 490.064 852.306 510.987 866.669H573.486C572.898 866.189 572.28 865.708 571.693 865.229C574.35 865.708 577.059 866.189 579.724 866.669H791.242C744.703 827.454 701.903 788.24 668.87 749.025C728.779 759.839 792.942 770.654 860.434 781.47V701.64C839.675 678.69 821.078 655.742 805.804 632.792C823.548 636.144 841.776 639.496 860.434 642.847V593.804C797.23 587.386 738.227 580.969 682.843 574.553" fill="#1A1A1A"/>
<path id="Fill 28" fill-rule="evenodd" clip-rule="evenodd" d="M807.869 819.299C824.875 831.906 842.559 844.513 860.434 857.121V823.867C842.726 822.344 825.196 820.821 807.869 819.299" fill="#1A1A1A"/>
</g>
</g>
<defs>
<clipPath id="clip0_3848_14585">
<rect width="855.218" height="857" fill="white"/>
</clipPath>
</defs>
</svg>
